{"title":"Iron.Man.2.2010.480p.BRRip.XviD.Feel-Free","uid":5815602,"size":2301753584,"categoryP":"video","categoryS":"movies","magnet":"?xt=urn:btih:86c25cd763c71981d1195527e8de4e2f3ad60b74&amp;dn=Iron.Man.2.2010.480p.BRRip.XviD.Feel-Free&amp;tr=udp%3A%2F%2Ftracker.openbittorrent.com%3A80&amp;tr=udp%3A%2F%2Fopen.demonii.com%3A1337&amp;tr=udp%3A%2F%2Ftracker.coppersurfer.tk%3A6969&amp;tr=udp%3A%2F%2Fexodus.desync.com%3A6969","seeders":0,"leechers":0,"uploader":".BONE.","files":11,"time":1283811503,"description":"Genre:Action | Adventure | Sci-Fi | Thriller\nLanguage: English\nIMDB:http://www.imdb.com/title/tt1228705/\nSource:BluRay.x264-EXQUiSiTE\nSubtitles: ROMANA\n\n\nGeneral\nComplete name :Iron.Man.2.2010.480p.BRRip.XviD.Feel-Free\nFormat : AVI\nFormat/Info : Audio Video Interleave\nFormat profile : OpenDML\nFile size : 2.14 GiB\nDuration : 2h 3mn\nOverall bit rate : 2 479 Kbps\nVideo #0\nCodec ID : XVID\nCodec ID/Hint : XviD\nDuration : 2h 3mn\nBit rate : 2 019 Kbps\nWidth : 688 pixels\nHeight : 288 pixels\nDisplay aspect ratio : 2.35:1\nFrame rate : 23.976 fps\nResolution : 24 bits\nColorimetry : 4:2:0\nScan type : Progressive\nBits/(Pixel*Frame) : 0.425\nStream size : 1.75 GiB (81%)\nWriting library : XviD 1.2.1 (UTC 2008-12-04)\nAudio #1\nID : 1\nFormat : AC-3\nFormat/Info : Audio Coding 3\nCodec ID : 2000\nDuration : 2h 3mn\nBit rate mode : Constant\nBit rate : 448 Kbps\nChannel(s) : 6 channels\nChannel positions : Front: L C R, Surround: L R, LFE\nSampling rate : 48.0 KHz\nStream size : 397 MiB (18%)\nAlignment : Aligned on interleaves\nInterleave, duration : 42 ms (1.00 video frame)\nInterleave, preload duration : 512 ms\n\nPlot\nBillionaire Tony Stark must contend with deadly issues involving the government, his own friends, as well as new enemies due to his superhero alter ego Iron Man\n","torrent":{"xt":"urn:btih:86c25cd763c71981d1195527e8de4e2f3ad60b74","amp;dn":"Iron.Man.2.2010.480p.BRRip.XviD.Feel-Free","amp;tr":["udp%3A%2F%2Ftracker.openbittorrent.com%3A80","udp%3A%2F%2Fopen.demonii.com%3A1337","udp%3A%2F%2Ftracker.coppersurfer.tk%3A6969","udp%3A%2F%2Fexodus.desync.com%3A6969"],"infoHash":"86c25cd763c71981d1195527e8de4e2f3ad60b74","infoHashBuffer":{"type":"Buffer","data":[134,194,92,215,99,199,25,129,209,25,85,39,232,222,78,47,58,214,11,116]},"announce":[],"urlList":[]}}